# xmcd
#
# Track frame offsets:
#	150
#	21217
#	36598
#	54681
#	70613
#	89170
#	107353
#	123228
#	137621
#	156582
#	173049
#	189242
#	205605
#	223448
#	240672
#	254158
#	272323
#	290048
#	307132
#	323506
#
# Disc length: 4613 seconds
#
# Revision: 1
# Processed by: cddbd v1.5.1PL0 Copyright (c) Steve Scherf et al.
# Submitted via: EasyCDDAExtractor 8.2.1.1
#
DISCID=31120314
DTITLE=фгма пецйу - лафи соу
DYEAR=2004
DGENRE=казйа
TTITLE0=еиласте выяиа ле то мийо беятг
TTITLE1=вамоласте ле то мийо беятг
TTITLE2=дем анифеис
TTITLE3=лафи соу
TTITLE4=аккг лиа бяадиа
TTITLE5=еилаи йака
TTITLE6=дустувыс
TTITLE7=ти йако лоу йамеис
TTITLE8=сица том амтяа
TTITLE9=ха се намабяы
TTITLE10=тгс ломаниас та ломопатиа
TTITLE11=циа ма то кес
TTITLE12=се ацапгса поку
TTITLE13=йаядиа апо сидеяо жтиацлемг
TTITLE14=еды йаи тыяа
TTITLE15=семаяиа
TTITLE16=йояли циа жикгла
TTITLE17=тгм ацйакиа соу амоине лоу
TTITLE18=ам ле ацапас
TTITLE19=выяис циако
EXTD=
EXTT0=
EXTT1=
EXTT2=
EXTT3=
EXTT4=
EXTT5=
EXTT6=
EXTT7=
EXTT8=
EXTT9=
EXTT10=
EXTT11=
EXTT12=
EXTT13=
EXTT14=
EXTT15=
EXTT16=
EXTT17=
EXTT18=
EXTT19=
PLAYORDER=
